<svg width="29" height="42" viewBox="0 0 29 42" fill="none" xmlns="http://www.w3.org/2000/svg">
<g clip-path="url(#clip0_2_1210)">
<path d="M22.6329 19.7248V19.6313C26.2448 18.2617 27.9085 15.665 27.9085 12.8786C27.9085 9.95132 26.3398 7.77973 24.1065 6.59902C22.6227 5.74335 21.0074 5.25625 18.9269 5.01177V0H16.1381V4.82286C15.6497 4.8099 15.138 4.80341 14.6011 4.80341H12.8637V0H10.0749V4.80434H0V8.56965H3.13461C4.29599 8.56965 5.23832 9.50589 5.23832 10.6597V31.3412C5.23832 32.495 4.29599 33.4313 3.13461 33.4313H0V37.1966L10.074 37.1836V42.0009H12.8628V37.1957C12.9346 37.1966 13.0073 37.1966 13.08 37.1966C13.5907 37.1966 14.0848 37.1892 14.5638 37.1762H14.5666C14.5778 37.1762 14.5881 37.1762 14.5993 37.1753C15.1315 37.1605 15.6441 37.1364 16.1381 37.1058V42.0009H18.9269V36.8197C21.9982 36.3659 24.1662 35.5093 25.6743 34.3166C27.6708 32.7108 29.0009 30.4438 29.0009 27.5166C29.0009 23.4559 26.2923 20.6694 22.6329 19.7258V19.7248ZM12.4145 10.2338C12.5449 10.2125 12.6932 10.1902 12.8628 10.1708C13.4351 10.1013 14.2572 10.0439 15.5034 10.0439C15.7215 10.0439 15.9322 10.0504 16.1372 10.0606C17.2697 10.1217 18.2055 10.3541 18.926 10.7496C20.0399 11.3617 20.6355 12.3627 20.6355 13.7277C20.6355 14.9974 20.0585 16.0345 18.926 16.7207C18.2139 17.1541 17.2827 17.4486 16.1372 17.5764C15.7168 17.6218 15.2676 17.6459 14.7903 17.6459H12.4135V10.2328L12.4145 10.2338ZM18.926 31.1421C18.1151 31.5264 17.1578 31.7459 16.1372 31.8255C15.8352 31.8496 15.5286 31.8607 15.2182 31.8607C14.2302 31.8607 13.4854 31.8607 12.8628 31.8125C12.7062 31.8005 12.5571 31.7857 12.4145 31.7672V22.7956H14.8854C15.3142 22.7956 15.7327 22.8141 16.1381 22.8512C17.1784 22.9466 18.1291 23.167 18.9269 23.529C20.4341 24.2143 21.397 25.4108 21.397 27.2342C21.397 29.1937 20.4052 30.4448 18.9269 31.143L18.926 31.1421Z" fill="#A4D8DE"/>
</g>
<defs>
<clipPath id="clip0_2_1210">
<rect width="29" height="42" fill="white"/>
</clipPath>
</defs>
</svg>
