<svg width="26" height="43" viewBox="0 0 26 43" fill="none" xmlns="http://www.w3.org/2000/svg">
<g clip-path="url(#clip0_2_1269)">
<path d="M25.9108 23.5872L13.8813 14.662L13.8025 1.0155L25.9108 23.5872Z" fill="#A4D8DE"/>
<path d="M25.9425 23.624L25.9201 23.5822L13.7916 0.972595L13.8705 14.6673L13.8748 14.6704L25.9425 23.624ZM13.8134 1.0583L25.8787 23.5502L13.8919 14.6564L13.8134 1.0583Z" fill="#A4D8DE"/>
<path d="M14.1122 32.1595L13.9107 42.9658L25.9661 26.1584L14.1122 32.1595Z" fill="#A4D8DE"/>
<path d="M13.8994 43L13.9195 42.9722L26 26.1294L25.9612 26.1491L14.1017 32.1529V32.1592L13.8994 42.9998V43ZM25.9319 26.1877L13.9221 42.9319L14.1228 32.166L25.9319 26.1877Z" fill="#A4D8DE"/>
<path d="M25.5825 24.1202L14.0412 28.7631L13.7819 15.767L25.5825 24.1202Z" fill="#A4D8DE"/>
<path d="M14.0309 28.7787L14.0452 28.773L25.6045 24.1227L13.7709 15.7462L13.7713 15.7672L14.0309 28.7785V28.7787ZM25.5605 24.1176L14.0516 28.7476L13.793 15.7879L25.5605 24.1176Z" fill="#A4D8DE"/>
<path d="M0.961423 24.298L12.5028 28.9409L12.7622 15.9448L0.961423 24.298Z" fill="#A4D8DE"/>
<path d="M12.5132 28.9563V28.9408L12.7733 15.9237L12.756 15.936L0.939672 24.3005L0.957808 24.3077L12.5134 28.9563H12.5132ZM12.7511 15.9655L12.4925 28.9251L0.983626 24.2952L12.7511 15.9655Z" fill="#A4D8DE"/>
<path d="M0.755038 23.6442L12.7845 14.7188L12.8633 1.07251L0.755038 23.6442Z" fill="#A4D8DE"/>
<path d="M0.723228 23.6811L12.7952 14.7243V14.719L12.8741 1.02966L12.8539 1.06764L0.723228 23.6813V23.6811ZM12.7739 14.7135L0.787024 23.6073L12.8524 1.11537L12.7741 14.7135H12.7739Z" fill="#A4D8DE"/>
<path d="M11.8878 32.1595L12.0892 42.9658L0.033905 26.1584L11.8878 32.1595Z" fill="#A4D8DE"/>
<path d="M12.1006 43L12.0999 42.9659L11.8983 32.1531L11.8926 32.1501L2.67029e-05 26.1294L12.1006 42.9998V43ZM11.8772 32.1663L12.078 42.9321L0.0680885 26.1879L11.8774 32.1665L11.8772 32.1663Z" fill="#A4D8DE"/>
</g>
<defs>
<clipPath id="clip0_2_1269">
<rect width="26" height="42.0274" fill="white" transform="matrix(-1 0 0 1 26 0.972595)"/>
</clipPath>
</defs>
</svg>
