<svg width="45" height="44" viewBox="0 0 45 44" fill="none" xmlns="http://www.w3.org/2000/svg">
<path fill-rule="evenodd" clip-rule="evenodd" d="M35.5103 13.8929C35.5103 17.439 32.6356 20.3136 29.0896 20.3136C25.5435 20.3136 22.6688 17.439 22.6688 13.8929C22.6688 10.3468 25.5435 7.47217 29.0896 7.47217C32.6356 7.47217 35.5103 10.3468 35.5103 13.8929ZM36.5103 13.8929C36.5103 17.9913 33.1879 21.3136 29.0896 21.3136C24.9912 21.3136 21.6688 17.9913 21.6688 13.8929C21.6688 9.79454 24.9912 6.47217 29.0896 6.47217C33.1879 6.47217 36.5103 9.79454 36.5103 13.8929ZM28.8473 16.6782V17.4639H29.3725V16.6866C30.0209 16.6613 30.5297 16.5008 30.899 16.2135C31.2683 15.9263 31.4489 15.5376 31.4489 15.0476C31.4489 14.5998 31.3012 14.2366 30.9975 13.9662C30.6938 13.6959 30.2343 13.5184 29.6187 13.417L29.3725 13.3748V11.9385C29.6433 11.9723 29.8485 12.0484 30.0045 12.1751C30.1604 12.3018 30.2753 12.4962 30.3409 12.7496L31.3668 12.6229C31.2191 11.6766 30.5543 11.1613 29.3807 11.0852V10.4009H28.8473V11.0852C28.2153 11.119 27.7147 11.2711 27.3618 11.5499C27.0089 11.8372 26.8283 12.2089 26.8283 12.6736C26.8283 13.1298 26.9761 13.4931 27.2633 13.755C27.5506 14.0169 27.9937 14.1943 28.6011 14.2872L28.8473 14.3295V15.8249C28.1989 15.7488 27.8378 15.4194 27.7557 14.8449H26.6888C26.8037 15.9854 27.5259 16.5937 28.8473 16.6782ZM28.1168 12.1244C28.2892 12.0061 28.5354 11.947 28.8555 11.9301V13.341L28.7406 13.3241C28.4369 13.2819 28.2153 13.2058 28.0758 13.0876C27.9363 12.9693 27.8624 12.8088 27.8624 12.5975C27.8624 12.3948 27.9527 12.2342 28.1168 12.1244ZM29.3807 15.8502V14.3886L29.4956 14.4055C29.7993 14.4478 30.0209 14.5238 30.1686 14.6421C30.3081 14.7604 30.382 14.9124 30.382 15.1068C30.382 15.3264 30.2999 15.4954 30.1276 15.6221C29.9552 15.7488 29.7008 15.8249 29.3807 15.8502ZM35.2869 24.2943L29.4761 28.1682L29.3501 28.2522H29.1987H25.0518H20.1411V27.2522H24.9292C25.5331 26.922 25.7896 26.5154 25.8614 26.3554V24.7601H15.9463L10.843 28.6938L10.7081 28.7978H10.5378H9.18257V35.3277H15.7099L30.1892 31.4378L37.3373 26.6369C37.474 26.3666 37.6534 25.7 37.2635 24.9202C37.0942 24.5816 36.7687 24.3895 36.3485 24.3022C35.9667 24.2228 35.5633 24.2448 35.2869 24.2943ZM9.18257 36.3277H15.7759H15.8419L15.9056 36.3106L30.5288 32.382L30.609 32.3605L30.6779 32.3142L37.9895 27.4034L38.0718 27.3481L38.1268 27.2657C38.4301 26.8106 38.773 25.7031 38.1579 24.473C37.8034 23.764 37.1468 23.4468 36.5521 23.3231C35.9612 23.2003 35.3643 23.2508 34.9832 23.3355L34.892 23.3557L34.8143 23.4075L29.0473 27.2522H26.4711C26.6723 26.9977 26.7913 26.758 26.8421 26.58L26.8614 26.5127V26.4426V24.2601V23.7601H26.3614H15.7759H15.6056L15.4707 23.8641L10.3674 27.7978H9.18257V26.9883V26.4883H8.68257H6.5V27.4883H8.18257V28.2978V35.8277V36.5281H6.5V37.5281H8.68257H9.18257V37.0281V36.3277Z" fill="#A4D8DE"/>
</svg>
