<svg width="250" height="49" viewBox="0 0 250 49" fill="none" xmlns="http://www.w3.org/2000/svg">
<g clip-path="url(#clip0)">
<path d="M62.2267 12.2366H79.3351L78.2751 18.2582H68.7634L68.1817 21.6116H75.0251L73.9984 27.3266H67.1551L65.5467 36.4632H57.9501L62.2267 12.2366Z" fill="white"/>
<path d="M92.1318 32.8016H84.0568L82.2084 36.4632H74.2351L87.3751 12.2366H96.1351L100.687 36.4632H92.6801L92.1318 32.8016ZM90.3184 20.3466L86.9301 27.0866H91.3101L90.3184 20.3466Z" fill="white"/>
<path d="M111.668 36.4749C105.73 36.4749 101.625 33.9732 102.225 28.6666H110.1C109.967 30.0349 110.5 30.7016 111.802 30.7016C112.568 30.7016 113.203 30.3016 113.203 29.5332C113.203 26.5299 103.76 27.0316 103.76 20.2249C103.76 15.0866 107.897 12.2166 113.603 12.2166C119.075 12.2166 123.047 15.0532 122.445 19.8566H114.47C114.703 18.6216 114.137 17.9882 113.168 17.9882C112.435 17.9882 111.867 18.4549 111.867 19.1899C111.867 22.0266 121.277 22.0932 121.277 28.8666C121.278 33.1716 117.742 36.4749 111.668 36.4749Z" fill="white"/>
<path d="M125.93 12.2366H146.323L145.263 18.2582H138.83L135.613 36.4616H128.017L131.233 18.2582H124.868L125.93 12.2366Z" fill="white"/>
<path d="M152.737 12.2434H169.07L168.618 14.7051H162.03L158.217 36.4151H155.06L158.875 14.7051H152.287L152.737 12.2434Z" fill="white"/>
<path d="M179.892 12.1833C185.578 12.1833 187.73 15.34 187.035 19.2933C186.48 22.38 184.26 25.3283 180.065 26.23L184.33 36.3567H180.55L176.527 26.4733H172.747L170.978 36.3567H167.822L172.122 12.185H179.892V12.1833ZM179.44 14.68H174.828L173.198 23.94H177.845C181.382 23.94 183.29 21.9983 183.775 19.2933C184.295 16.4833 183.047 14.68 179.44 14.68Z" fill="white"/>
<path d="M202.977 30.9899H192.302L189.397 36.4149H186.037L199.125 12.1616H202.8L207.315 36.4149H203.955L202.977 30.9899ZM200.282 16.0466L193.632 28.5049H202.522L200.282 16.0466Z" fill="white"/>
<path d="M231.953 24.3399C230.632 31.8566 224.925 36.4149 216.957 36.4149H209.405L213.72 12.1616H221.272C229.205 12.1616 233.312 16.825 231.953 24.3399ZM217.408 33.9799C223.742 33.9799 227.673 30.2566 228.717 24.3416C229.76 18.4266 227.117 14.7383 220.818 14.7383H216.433L213.023 33.9816H217.408V33.9799Z" fill="white"/>
<path d="M249.548 14.7049H239.733L238.277 22.9933H247.05L246.633 25.4216H237.86L236.333 33.9183H246.182L245.732 36.4149H232.727L237.027 12.2083H250L249.548 14.7049Z" fill="white"/>
<path d="M49.8084 8.52511C49.4951 7.52011 48.98 6.60511 48.28 5.80511C47.58 5.00511 46.7417 4.37511 45.7867 3.93011C44.795 3.46844 43.7284 3.23511 42.6167 3.23511H9.19338L3.29671 36.7384C3.16004 37.8201 3.25338 38.8868 3.57338 39.9118C3.88671 40.9168 4.40171 41.8318 5.10171 42.6318C5.80171 43.4318 6.64004 44.0618 7.59504 44.5068C8.58671 44.9684 9.65338 45.2018 10.765 45.2018H44.1884L50.0851 11.7001C50.2217 10.6184 50.1284 9.55011 49.8084 8.52511Z" fill="#00172B"/>
<path d="M42.6176 3.23667C43.7292 3.23667 44.7959 3.47 45.7876 3.93167C46.7426 4.37667 47.5809 5.00667 48.2809 5.80667C48.9809 6.60667 49.4942 7.52167 49.8092 8.52667C50.1292 9.55167 50.2226 10.6183 50.0859 11.7L44.1892 45.2H10.7659C9.65424 45.2 8.58758 44.9667 7.59591 44.505C6.64091 44.06 5.80258 43.43 5.10258 42.63C4.40258 41.83 3.88924 40.915 3.57424 39.91C3.25424 38.885 3.16091 37.8183 3.29758 36.7367L9.19424 3.23667H42.6176ZM42.6176 0H6.47758L0.0975755 36.2483C-0.764091 42.7017 4.25591 48.4367 10.7659 48.4367H46.9059L53.2859 12.1883C54.1476 5.735 49.1276 0 42.6176 0Z" fill="#005CB7"/>
<path d="M14.5134 13.0466L10.5734 35.37H17.5717L19.055 26.9516H25.36L26.3067 21.685H20L20.5367 18.595H29.3017L30.2784 13.0466H14.5134Z" fill="white"/>
<path d="M41.21 21.6533H28.57L27.6434 26.8133L27.6217 26.9333H31.2584L29.71 35.37H35.1884L36.735 26.9333H40.2917L41.21 21.6533Z" fill="white"/>
</g>
<defs>
<clipPath id="clip0">
<rect width="250" height="48.4367" fill="white"/>
</clipPath>
</defs>
</svg>
