<svg id="Camada_1" data-name="Camada 1" xmlns="http://www.w3.org/2000/svg" viewBox="0 0 502.98 215.8"><defs><style>.cls-1{fill:#0083bb;}.cls-2{fill:#2ea8d3;}.cls-3{fill:#99d5ef;}</style></defs><path d="M227.26,84.43c-.95,3.93-1.88,7.76-2.8,11.6-1.39,5.73-2.75,11.47-4.18,17.19-.22.89,0,1,.81,1,7,0,14.06,0,21.09,0h1.49c-.87,3.61-1.71,7.13-2.56,10.64-1.45,6-2.94,12-4.35,18-.22,1-.62,1.2-1.56,1.19-7,0-14.06,0-21.09,0-.92,0-1.36.17-1.6,1.17q-4.12,17.39-8.36,34.76a7.87,7.87,0,0,0-.17,1c-.34,3.36.65,4.45,4,4.45,5.71,0,11.42,0,17.13,0,.91,0,1.11.23.9,1.1q-3.39,13.88-6.74,27.76c-.14.57-.23,1-1.07,1-10.55-.13-21.1.21-31.64-.22a22.51,22.51,0,0,1-9.2-2.26c-4.52-2.24-6.78-6-7.16-10.94-.31-4,.65-7.87,1.59-11.73l23.73-98c.56-2.33,1.16-4.65,1.69-7,.12-.53.29-.76.87-.76Z"/><path d="M311.41,215.8a2.36,2.36,0,0,1,.52-1.33q7.17-13.15,14.35-26.28a2.6,2.6,0,0,0,.26-2.09q-9-35-18-70.06c-.1-.4-.19-.8-.28-1.2.29-.27.63-.15.94-.15,9.71,0,19.43.09,29.15.07,1.29,0,1.81.32,2.13,1.64,2.5,10.12,5.1,20.22,7.67,30.33,0,.19.12.37.25.75.31-.53.53-.89.74-1.26q8.26-15.15,16.51-30.31a1.85,1.85,0,0,1,1.91-1.14c9.88,0,19.76,0,29.64-.09H398c.09.53-.24.83-.43,1.18l-53.08,98.69c-.32.6-.58,1-1.44,1-10.3,0-20.59.13-30.89.21Z"/><path d="M246.79,215.25c-4.63,0-9.26,0-13.9,0-.89,0-1.2-.06-.94-1.13,5.47-22.43,10.86-44.88,16.33-67.31,1.09-4.48,1.86-9.05,3.59-13.36a30.94,30.94,0,0,1,28.19-19.23c6,0,12.08,0,18.11,0,.82,0,1.15.24,1.32,1q3.21,13.86,6.48,27.7c.22.95,0,1.17-.94,1.16-6.12,0-12.24.1-18.36-.05-6.37-.16-8.52,3.31-9.51,7.43q-7.55,31.2-15.09,62.39c-.25,1.06-.61,1.45-1.76,1.43C255.8,215.21,251.3,215.25,246.79,215.25Z"/><path d="M502.38,83.92c-9.39,0-18.78,0-28.16,0-1,0-1,.55-1.18,1.17q-3.39,14-6.75,28c-.2.83-.49,1.18-1.44,1.17q-12-.06-23.94,0c-5.67,0-11.34-.27-17,.2-6.4.52-12.15,2.65-16.86,7.18s-7.45,10.44-9,16.78c-4,16.38-7.95,32.77-11.93,49.16-1.11,4.57-2.28,9.12-2,13.91a13.14,13.14,0,0,0,9.37,12.38,31.39,31.39,0,0,0,10.14,1.4q33.18,0,66.37,0c1,0,1.29-.35,1.51-1.26q11.58-48,23.21-95.92c2.75-11.33,5.49-22.67,8.26-34.13C502.7,84,502.54,83.92,502.38,83.92Zm-44,61.2q-4.82,19.69-9.55,39.41a1,1,0,0,1-1.16.89c-4.13,0-8.26,0-12.4,0-3.72,0-7.44,0-11.15,0-5.13,0-7-2.35-5.8-7.35q3.13-13.17,6.35-26.32c1.28-5.25,4.32-7.63,9.75-7.65,7.69,0,15.37,0,23.06,0C458.34,144.05,458.58,144.19,458.36,145.12Z"/><path class="cls-1" d="M214.48.53,139.82,0,126.27,15.48l43,.31a6.58,6.58,0,0,1,4.91,10.92L90.64,122.22l-.19,26.23L216.32,4.62A2.47,2.47,0,0,0,214.48.53Z"/><path class="cls-2" d="M169.27,19.9l-74.66-.52L81.44,34.43l42.62.3A6.59,6.59,0,0,1,129,45.66L45.43,141.12l-.19,26.71L171.11,24A2.47,2.47,0,0,0,169.27,19.9Z"/><path class="cls-3" d="M0,186.78.31,143l66-75.4L24,67.32l25.37-29,74.66.52a2.47,2.47,0,0,1,1.84,4.1Z"/></svg>