<svg width="45" height="44" viewBox="0 0 45 44" fill="none" xmlns="http://www.w3.org/2000/svg">
<path d="M7.57926 9.94129C7.57926 9.01689 8.20788 8.23775 9.06467 8.23775H36.0132C36.8056 8.23775 37.4207 8.94323 37.4207 9.85197V11.9H38.5V9.85197C38.5 8.25964 37.4017 7 36.0132 7H9.06467C7.58487 7 6.5 8.36462 6.5 9.94129V27.538C6.5 29.1304 7.59835 30.39 8.98678 30.39H18.6446L18.6473 30.39H25.7379V30.9324C25.7379 31.9925 26.1075 32.9445 26.7384 33.6759C27.327 34.4504 28.2598 34.8562 29.1593 34.8562C29.3581 34.8562 29.5543 35.0586 29.5543 35.3092V35.7623H15.2121V35.3092C15.2121 35.174 15.2687 35.0541 15.3656 34.9429C15.3907 34.9141 15.4133 34.8825 15.433 34.8486C15.4331 34.8485 15.4358 34.8437 15.4455 34.8355C15.4559 34.8268 15.4732 34.8152 15.499 34.8038C15.5537 34.7797 15.6227 34.7669 15.685 34.7669C16.6865 34.7669 17.5243 34.3431 18.1695 33.6031C18.5424 33.1754 18.8126 32.6531 18.9899 32.1448L17.9879 31.6851C17.8536 32.07 17.6565 32.441 17.4064 32.7279C16.9612 33.2384 16.397 33.5292 15.685 33.5292C15.3943 33.5292 14.8782 33.6292 14.568 34.1083C14.3615 34.3584 14.1329 34.7607 14.1329 35.3092V36.3811C14.1329 36.7229 14.3745 37 14.6725 37H30.0939C30.392 37 30.6336 36.7229 30.6336 36.3811V35.3092C30.6336 34.3093 29.8952 33.6185 29.1593 33.6185C28.5081 33.6185 27.8908 33.3161 27.544 32.852C27.535 32.84 27.5256 32.8284 27.5158 32.8172C27.065 32.3002 26.8171 31.6508 26.8171 30.9324V30.4794H35.9354C37.3238 30.4794 38.4222 29.2197 38.4222 27.6274L38.4221 14.0502H37.3428V24.6861H34.066V25.9238H37.3429V27.6274C37.3429 28.5361 36.7278 29.2416 35.9354 29.2416H28.2705C28.1889 29.1849 28.0933 29.1522 27.991 29.1522H14.8282L14.8256 29.1523H8.98678C8.1944 29.1523 7.57926 28.4468 7.57926 27.538V25.9238L31.1843 25.9238V24.6861H7.57926V9.94129Z" fill="#A4D8DE"/>
<path fill-rule="evenodd" clip-rule="evenodd" d="M14.7564 22.2615C17.544 22.2577 19.8073 19.6597 19.8073 16.4619C19.8073 16.1201 19.5657 15.843 19.2677 15.843H15.9683L18.1876 13.0367C18.3877 12.7838 18.3712 12.3928 18.1509 12.163C17.1902 11.1615 15.9687 10.6623 14.7503 10.6623C13.3584 10.6623 12.1315 11.2655 11.1754 12.362C10.3022 13.3635 9.69331 14.8579 9.69331 16.4619C9.69331 19.6597 11.9567 22.2578 14.7443 22.2615L14.7504 22.2616L14.7564 22.2615ZM10.7726 16.4619C10.7726 15.4372 11.0939 14.4586 11.5847 13.7066L14.2107 16.7182V20.982C12.271 20.6794 10.7726 18.7686 10.7726 16.4619ZM15.29 17.0808V20.982C17.0532 20.7069 18.4518 19.103 18.6917 17.0808H15.29Z" fill="#A4D8DE"/>
<path d="M34.1384 10.6623H27.1398V11.9H34.1384V10.6623Z" fill="#A4D8DE"/>
<path d="M27.1398 13.1634H34.1384V14.4011H27.1398V13.1634Z" fill="#A4D8DE"/>
</svg>
