<svg width="45" height="44" viewBox="0 0 45 44" fill="none" xmlns="http://www.w3.org/2000/svg">
<path fill-rule="evenodd" clip-rule="evenodd" d="M33.0229 10.8036C35.1865 13.2832 36.5 16.531 36.5 20.0816C36.5 24.6019 34.3723 28.7895 30.7688 31.4413C31.77 32.0859 32.4729 33.1595 32.6176 34.4032H33.8083L35.1088 38H9.89131L11.1917 34.4032H12.3825C12.5277 33.16 13.2301 32.0859 14.2313 31.4413C10.6278 28.7891 8.50012 24.6015 8.50012 20.0816C8.50012 12.3169 14.7805 6.00001 22.5 6.00001C25.4268 5.99666 28.2801 6.92098 30.6548 8.64168L29.9707 9.32968C27.7829 7.7842 25.1738 6.95626 22.5003 6.95911C15.3067 6.95911 9.45407 12.8459 9.45407 20.0816C9.45407 24.473 11.6098 28.5287 15.2326 30.9764C15.56 30.8763 15.8988 30.8185 16.2407 30.8044L16.2865 30.8026L16.3235 30.8015C16.3536 30.8008 16.3836 30.8004 16.4137 30.8004H28.5872C28.6173 30.8004 28.6475 30.8008 28.6775 30.8015L28.7142 30.8026L28.7604 30.8044C29.1023 30.8185 29.4409 30.8763 29.7683 30.9764C33.3911 28.5282 35.5468 24.473 35.5468 20.0816C35.5468 16.7959 34.3391 13.7881 32.3473 11.483L33.0229 10.8036ZM33.1402 35.3632H32.6458H11.8595L11.2526 37.0417H33.7472L33.1402 35.3632ZM13.3442 34.404H31.6557V34.4036C31.4891 33.322 30.7691 32.4219 29.7967 32.007L29.6663 31.9583C29.3629 31.8439 29.0437 31.778 28.72 31.7628C28.707 31.7623 28.6944 31.7619 28.6814 31.7615C28.673 31.7613 28.6644 31.761 28.6553 31.7607C28.6324 31.7599 28.6097 31.7599 28.5866 31.7599H16.4132C16.3902 31.7599 16.3661 31.7603 16.3445 31.7607C16.3229 31.7611 16.3014 31.7619 16.2798 31.7628C15.9562 31.778 15.6369 31.844 15.3335 31.9583L15.2031 32.007C14.2308 32.4223 13.5107 33.3224 13.3442 34.404ZM25.8567 19.8324C25.9466 19.918 26.0302 20.0101 26.1066 20.1081C26.9677 21.2097 26.7779 22.8048 25.6832 23.6708C24.9 24.2157 23.9648 24.4959 23.0129 24.4706V25.7984H22.1122V24.4553C19.8104 24.3174 18.5579 23.2725 18.3548 21.3206H20.2148C20.2711 21.7856 20.4954 22.2137 20.8449 22.5232C21.1945 22.8328 21.645 23.0024 22.1107 22.9997V20.4417L21.6843 20.3772C20.8358 20.301 20.026 19.9849 19.3486 19.4652C19.0939 19.2315 18.8938 18.944 18.7626 18.6233C18.6315 18.3025 18.5725 17.9566 18.59 17.6103C18.5805 17.2385 18.6603 16.87 18.8226 16.5359C18.9849 16.2018 19.2249 15.912 19.5223 15.691C20.2832 15.1621 21.188 14.8828 22.1129 14.8912V13.7237H23.0542V14.8903C25.108 15.0155 26.2612 15.8953 26.5137 17.5296L24.7284 17.7338C24.6403 17.355 24.4357 17.0137 24.1436 16.7585C23.8166 16.5232 23.4299 16.3862 23.0285 16.3631V18.8242L23.4551 18.8885C24.3285 18.9675 25.1615 19.2949 25.8567 19.8324ZM21.9425 18.6976L22.1325 18.7292V16.3146C21.6842 16.313 21.2432 16.4288 20.8529 16.6506C20.7151 16.7363 20.6018 16.8566 20.5241 16.9997C20.4465 17.1428 20.4072 17.3037 20.4102 17.4667C20.4006 17.6259 20.4302 17.7851 20.4963 17.9301C20.5624 18.075 20.6629 18.2015 20.789 18.2981C21.1326 18.5295 21.5301 18.6672 21.9425 18.6976ZM23.0485 23.0321C23.5057 23.018 23.9515 22.8859 24.3433 22.6484C24.4873 22.5498 24.6036 22.4157 24.6811 22.2588C24.7586 22.1019 24.7947 21.9276 24.7859 21.7526C24.792 21.5984 24.7607 21.445 24.6947 21.3057C24.6287 21.1663 24.5301 21.0452 24.4072 20.9528C24.0579 20.7213 23.6555 20.5835 23.2383 20.5524L23.0485 20.5208V23.0321Z" fill="#A4D8DE"/>
</svg>
