<svg width="45" height="44" viewBox="0 0 45 44" fill="none" xmlns="http://www.w3.org/2000/svg">
<path d="M10.2994 26.7197V23.7621C10.2994 22.6803 11.1773 21.8079 12.2659 21.8079H16.5588C17.6474 21.8079 18.5253 22.6803 18.5253 23.7621V26.7197H10.2994Z" fill="#A4D8DE"/>
<path d="M14.3817 20.4033C15.7441 20.4033 16.8486 19.3057 16.8486 17.9517C16.8486 16.5978 15.7441 15.5002 14.3817 15.5002C13.0193 15.5002 11.9148 16.5978 11.9148 17.9517C11.9148 19.3057 13.0193 20.4033 14.3817 20.4033Z" fill="#A4D8DE"/>
<path fill-rule="evenodd" clip-rule="evenodd" d="M32.5012 17.9529H22.1828V17.1353H32.5012V17.9529Z" fill="#A4D8DE"/>
<path fill-rule="evenodd" clip-rule="evenodd" d="M32.5012 21.2134H22.1828V20.3959H32.5012V21.2134Z" fill="#A4D8DE"/>
<path fill-rule="evenodd" clip-rule="evenodd" d="M32.5012 24.474H22.1828V23.6564H32.5012V24.474Z" fill="#A4D8DE"/>
<path fill-rule="evenodd" clip-rule="evenodd" d="M6.5 13.1806C6.5 12.5295 7.03287 12 7.68799 12H35.1243C35.7794 12 36.3123 12.5295 36.3123 13.1806V23.2671H35.4896V13.1806C35.4896 12.9811 35.3251 12.8176 35.1243 12.8176H7.68799C7.48722 12.8176 7.32269 12.9811 7.32269 13.1806V29.8534C7.32269 30.053 7.48722 30.2165 7.68799 30.2165H25.4321V31.034H7.68799C7.03287 31.034 6.5 30.5045 6.5 29.8534V13.1806Z" fill="#A4D8DE"/>
<path d="M31.0104 32.7769C30.9148 32.8723 30.7556 32.8723 30.66 32.7769L26.5003 28.624C26.4048 28.5286 26.4048 28.3696 26.5003 28.2742L27.0482 27.7209L27.3603 27.4093C27.4559 27.3139 27.6151 27.3139 27.7107 27.4093L30.711 30.4047C30.7747 30.4683 30.883 30.4683 30.953 30.4047L37.183 24.1849C37.3168 24.0513 37.5397 24.0513 37.6735 24.1849L38.3997 24.9099C38.5334 25.0434 38.5334 25.266 38.3997 25.3996L31.0104 32.7769Z" fill="#A4D8DE"/>
</svg>
